<svg xmlns="http://www.w3.org/2000/svg" xmlns:xlink="http://www.w3.org/1999/xlink" width="300" zoomAndPan="magnify" viewBox="0 0 224.87999 38.249999" height="51" preserveAspectRatio="xMidYMid meet" version="1.0"><defs><g/><clipPath id="c567c6a958"><path d="M 140 5 L 142 5 L 142 8 L 140 8 Z M 140 5 " clip-rule="nonzero"/></clipPath><clipPath id="e0d3960bbf"><path d="M 135.941406 5.601562 L 137.84375 2.523438 L 144 6.328125 L 142.097656 9.40625 Z M 135.941406 5.601562 " clip-rule="nonzero"/></clipPath><clipPath id="e0eeee74e5"><path d="M 135.941406 5.601562 L 137.84375 2.523438 L 144 6.328125 L 142.097656 9.40625 Z M 135.941406 5.601562 " clip-rule="nonzero"/></clipPath><clipPath id="1b1b452fee"><path d="M 141 6 L 143 6 L 143 10 L 141 10 Z M 141 6 " clip-rule="nonzero"/></clipPath><clipPath id="892d86a508"><path d="M 135.941406 5.601562 L 137.84375 2.523438 L 144 6.328125 L 142.097656 9.40625 Z M 135.941406 5.601562 " clip-rule="nonzero"/></clipPath><clipPath id="487b64b50e"><path d="M 135.941406 5.601562 L 137.84375 2.523438 L 144 6.328125 L 142.097656 9.40625 Z M 135.941406 5.601562 " clip-rule="nonzero"/></clipPath><clipPath id="fc1c722c8a"><path d="M 139 3 L 141 3 L 141 7 L 139 7 Z M 139 3 " clip-rule="nonzero"/></clipPath><clipPath id="fe80e97665"><path d="M 135.941406 5.601562 L 137.84375 2.523438 L 144 6.328125 L 142.097656 9.40625 Z M 135.941406 5.601562 " clip-rule="nonzero"/></clipPath><clipPath id="fa060b6665"><path d="M 135.941406 5.601562 L 137.84375 2.523438 L 144 6.328125 L 142.097656 9.40625 Z M 135.941406 5.601562 " clip-rule="nonzero"/></clipPath><clipPath id="bf68c340c0"><path d="M 138.359375 5.167969 L 139.457031 3.394531 L 141.253906 4.507812 L 140.15625 6.28125 Z M 138.359375 5.167969 " clip-rule="nonzero"/></clipPath><clipPath id="850a3598f1"><path d="M 138.359375 5.167969 L 139.398438 3.488281 L 141.195312 4.601562 L 140.15625 6.28125 Z M 138.359375 5.167969 " clip-rule="nonzero"/></clipPath><clipPath id="f05660083b"><path d="M 138 5 L 141 5 L 141 8 L 138 8 Z M 138 5 " clip-rule="nonzero"/></clipPath><clipPath id="55fa011cd1"><path d="M 135.941406 5.601562 L 137.84375 2.523438 L 144 6.328125 L 142.097656 9.40625 Z M 135.941406 5.601562 " clip-rule="nonzero"/></clipPath><clipPath id="b38d395fee"><path d="M 135.941406 5.601562 L 137.84375 2.523438 L 144 6.328125 L 142.097656 9.40625 Z M 135.941406 5.601562 " clip-rule="nonzero"/></clipPath><clipPath id="16bfc18325"><path d="M 139 6 L 142 6 L 142 9 L 139 9 Z M 139 6 " clip-rule="nonzero"/></clipPath><clipPath id="c9ae586917"><path d="M 135.941406 5.601562 L 137.84375 2.523438 L 144 6.328125 L 142.097656 9.40625 Z M 135.941406 5.601562 " clip-rule="nonzero"/></clipPath><clipPath id="f6112caa0d"><path d="M 135.941406 5.601562 L 137.84375 2.523438 L 144 6.328125 L 142.097656 9.40625 Z M 135.941406 5.601562 " clip-rule="nonzero"/></clipPath><clipPath id="4bf1aa1820"><path d="M 137 3 L 140 3 L 140 6 L 137 6 Z M 137 3 " clip-rule="nonzero"/></clipPath><clipPath id="9bb7182b76"><path d="M 135.941406 5.601562 L 137.84375 2.523438 L 144 6.328125 L 142.097656 9.40625 Z M 135.941406 5.601562 " clip-rule="nonzero"/></clipPath><clipPath id="cf465bb2b5"><path d="M 135.941406 5.601562 L 137.84375 2.523438 L 144 6.328125 L 142.097656 9.40625 Z M 135.941406 5.601562 " clip-rule="nonzero"/></clipPath><clipPath id="3b8d541d0e"><path d="M 142 10 L 144 10 L 144 14 L 142 14 Z M 142 10 " clip-rule="nonzero"/></clipPath><clipPath id="2479a1a7e9"><path d="M 138.472656 10 L 141.234375 7.664062 L 145.910156 13.1875 L 143.148438 15.523438 Z M 138.472656 10 " clip-rule="nonzero"/></clipPath><clipPath id="bd07adfd34"><path d="M 138.472656 10 L 141.234375 7.664062 L 145.910156 13.1875 L 143.148438 15.523438 Z M 138.472656 10 " clip-rule="nonzero"/></clipPath><clipPath id="72ff8705b8"><path d="M 142 12 L 144 12 L 144 16 L 142 16 Z M 142 12 " clip-rule="nonzero"/></clipPath><clipPath id="cf3188db3d"><path d="M 138.472656 10 L 141.234375 7.664062 L 145.910156 13.1875 L 143.148438 15.523438 Z M 138.472656 10 " clip-rule="nonzero"/></clipPath><clipPath id="afb3fbf5fa"><path d="M 138.472656 10 L 141.234375 7.664062 L 145.910156 13.1875 L 143.148438 15.523438 Z M 138.472656 10 " clip-rule="nonzero"/></clipPath><clipPath id="6bc0cdee0f"><path d="M 142 9 L 143 9 L 143 12 L 142 12 Z M 142 9 " clip-rule="nonzero"/></clipPath><clipPath id="a069ffe72b"><path d="M 138.472656 10 L 141.234375 7.664062 L 145.910156 13.1875 L 143.148438 15.523438 Z M 138.472656 10 " clip-rule="nonzero"/></clipPath><clipPath id="a5325cceb4"><path d="M 138.472656 10 L 141.234375 7.664062 L 145.910156 13.1875 L 143.148438 15.523438 Z M 138.472656 10 " clip-rule="nonzero"/></clipPath><clipPath id="52ffe5cdb5"><path d="M 140.90625 10.339844 L 142.496094 8.992188 L 143.863281 10.605469 L 142.269531 11.953125 Z M 140.90625 10.339844 " clip-rule="nonzero"/></clipPath><clipPath id="e2631e8048"><path d="M 140.90625 10.339844 L 142.414062 9.0625 L 143.777344 10.675781 L 142.269531 11.953125 Z M 140.90625 10.339844 " clip-rule="nonzero"/></clipPath><clipPath id="9eaf87954d"><path d="M 140 10 L 143 10 L 143 13 L 140 13 Z M 140 10 " clip-rule="nonzero"/></clipPath><clipPath id="302425923f"><path d="M 138.472656 10 L 141.234375 7.664062 L 145.910156 13.1875 L 143.148438 15.523438 Z M 138.472656 10 " clip-rule="nonzero"/></clipPath><clipPath id="31ad3263fb"><path d="M 138.472656 10 L 141.234375 7.664062 L 145.910156 13.1875 L 143.148438 15.523438 Z M 138.472656 10 " clip-rule="nonzero"/></clipPath><clipPath id="11d23cdcd8"><path d="M 141 11 L 143 11 L 143 15 L 141 15 Z M 141 11 " clip-rule="nonzero"/></clipPath><clipPath id="a1241288ae"><path d="M 138.472656 10 L 141.234375 7.664062 L 145.910156 13.1875 L 143.148438 15.523438 Z M 138.472656 10 " clip-rule="nonzero"/></clipPath><clipPath id="210bae1c5f"><path d="M 138.472656 10 L 141.234375 7.664062 L 145.910156 13.1875 L 143.148438 15.523438 Z M 138.472656 10 " clip-rule="nonzero"/></clipPath><clipPath id="1875295f55"><path d="M 140 8 L 142 8 L 142 11 L 140 11 Z M 140 8 " clip-rule="nonzero"/></clipPath><clipPath id="13e565bc6e"><path d="M 138.472656 10 L 141.234375 7.664062 L 145.910156 13.1875 L 143.148438 15.523438 Z M 138.472656 10 " clip-rule="nonzero"/></clipPath><clipPath id="53260ad4a5"><path d="M 138.472656 10 L 141.234375 7.664062 L 145.910156 13.1875 L 143.148438 15.523438 Z M 138.472656 10 " clip-rule="nonzero"/></clipPath><clipPath id="82aae47f99"><path d="M 114.554688 16.898438 L 143.242188 16.898438 L 143.242188 30.871094 L 114.554688 30.871094 Z M 114.554688 16.898438 " clip-rule="nonzero"/></clipPath><clipPath id="bf37a9f80e"><path d="M 116 5 L 118 5 L 118 8 L 116 8 Z M 116 5 " clip-rule="nonzero"/></clipPath><clipPath id="05a979ffb7"><path d="M 120.121094 2.273438 L 122.0625 5.347656 L 115.910156 9.226562 L 113.972656 6.148438 Z M 120.121094 2.273438 " clip-rule="nonzero"/></clipPath><clipPath id="ffcde43322"><path d="M 122.21875 5.597656 L 120.28125 2.523438 L 114.128906 6.398438 L 116.070312 9.476562 Z M 122.21875 5.597656 " clip-rule="nonzero"/></clipPath><clipPath id="3e362bd138"><path d="M 115 6 L 117 6 L 117 10 L 115 10 Z M 115 6 " clip-rule="nonzero"/></clipPath><clipPath id="92b3395960"><path d="M 120.121094 2.273438 L 122.0625 5.347656 L 115.910156 9.226562 L 113.972656 6.148438 Z M 120.121094 2.273438 " clip-rule="nonzero"/></clipPath><clipPath id="966585cd98"><path d="M 122.21875 5.597656 L 120.28125 2.523438 L 114.128906 6.398438 L 116.070312 9.476562 Z M 122.21875 5.597656 " clip-rule="nonzero"/></clipPath><clipPath id="454f98ea27"><path d="M 117 3 L 119 3 L 119 7 L 117 7 Z M 117 3 " clip-rule="nonzero"/></clipPath><clipPath id="82463db1c0"><path d="M 120.121094 2.273438 L 122.0625 5.347656 L 115.910156 9.226562 L 113.972656 6.148438 Z M 120.121094 2.273438 " clip-rule="nonzero"/></clipPath><clipPath id="23d4a7ae6f"><path d="M 122.21875 5.597656 L 120.28125 2.523438 L 114.128906 6.398438 L 116.070312 9.476562 Z M 122.21875 5.597656 " clip-rule="nonzero"/></clipPath><clipPath id="5a7d1de493"><path d="M 119.785156 5.1875 L 118.667969 3.414062 L 116.871094 4.546875 L 117.988281 6.316406 Z M 119.785156 5.1875 " clip-rule="nonzero"/></clipPath><clipPath id="60898e53a8"><path d="M 119.785156 5.1875 L 118.726562 3.507812 L 116.933594 4.640625 L 117.988281 6.316406 Z M 119.785156 5.1875 " clip-rule="nonzero"/></clipPath><clipPath id="688485c218"><path d="M 117 5 L 120 5 L 120 8 L 117 8 Z M 117 5 " clip-rule="nonzero"/></clipPath><clipPath id="a57fad4b7c"><path d="M 120.121094 2.273438 L 122.0625 5.347656 L 115.910156 9.226562 L 113.972656 6.148438 Z M 120.121094 2.273438 " clip-rule="nonzero"/></clipPath><clipPath id="1021e477f7"><path d="M 122.21875 5.597656 L 120.28125 2.523438 L 114.128906 6.398438 L 116.070312 9.476562 Z M 122.21875 5.597656 " clip-rule="nonzero"/></clipPath><clipPath id="486eab22a0"><path d="M 116 6 L 119 6 L 119 9 L 116 9 Z M 116 6 " clip-rule="nonzero"/></clipPath><clipPath id="fd4596a468"><path d="M 120.121094 2.273438 L 122.0625 5.347656 L 115.910156 9.226562 L 113.972656 6.148438 Z M 120.121094 2.273438 " clip-rule="nonzero"/></clipPath><clipPath id="ec24e1f44a"><path d="M 122.21875 5.597656 L 120.28125 2.523438 L 114.128906 6.398438 L 116.070312 9.476562 Z M 122.21875 5.597656 " clip-rule="nonzero"/></clipPath><clipPath id="b0d67a7a9a"><path d="M 118 3 L 121 3 L 121 6 L 118 6 Z M 118 3 " clip-rule="nonzero"/></clipPath><clipPath id="c96838be08"><path d="M 120.121094 2.273438 L 122.0625 5.347656 L 115.910156 9.226562 L 113.972656 6.148438 Z M 120.121094 2.273438 " clip-rule="nonzero"/></clipPath><clipPath id="a5215f2c37"><path d="M 122.21875 5.597656 L 120.28125 2.523438 L 114.128906 6.398438 L 116.070312 9.476562 Z M 122.21875 5.597656 " clip-rule="nonzero"/></clipPath><clipPath id="e930362f98"><path d="M 115 10 L 116 10 L 116 14 L 115 14 Z M 115 10 " clip-rule="nonzero"/></clipPath><clipPath id="d7fce5bf29"><path d="M 116.96875 7.414062 L 119.773438 9.730469 L 115.144531 15.335938 L 112.339844 13.023438 Z M 116.96875 7.414062 " clip-rule="nonzero"/></clipPath><clipPath id="a757b26073"><path d="M 120 9.917969 L 117.195312 7.601562 L 112.570312 13.210938 L 115.375 15.523438 Z M 120 9.917969 " clip-rule="nonzero"/></clipPath><clipPath id="5ef4403d2b"><path d="M 114 12 L 116 12 L 116 16 L 114 16 Z M 114 12 " clip-rule="nonzero"/></clipPath><clipPath id="1067bdb6a0"><path d="M 116.96875 7.414062 L 119.773438 9.730469 L 115.144531 15.335938 L 112.339844 13.023438 Z M 116.96875 7.414062 " clip-rule="nonzero"/></clipPath><clipPath id="f09e9de7ab"><path d="M 120 9.917969 L 117.195312 7.601562 L 112.570312 13.210938 L 115.375 15.523438 Z M 120 9.917969 " clip-rule="nonzero"/></clipPath><clipPath id="4dc00e61d2"><path d="M 115 9 L 117 9 L 117 12 L 115 12 Z M 115 9 " clip-rule="nonzero"/></clipPath><clipPath id="9af8060de6"><path d="M 116.96875 7.414062 L 119.773438 9.730469 L 115.144531 15.335938 L 112.339844 13.023438 Z M 116.96875 7.414062 " clip-rule="nonzero"/></clipPath><clipPath id="be03139e3e"><path d="M 120 9.917969 L 117.195312 7.601562 L 112.570312 13.210938 L 115.375 15.523438 Z M 120 9.917969 " clip-rule="nonzero"/></clipPath><clipPath id="c25fd695aa"><path d="M 117.5625 10.289062 L 115.945312 8.957031 L 114.59375 10.59375 L 116.210938 11.925781 Z M 117.5625 10.289062 " clip-rule="nonzero"/></clipPath><clipPath id="0ea0dc001f"><path d="M 117.5625 10.289062 L 116.03125 9.027344 L 114.679688 10.664062 L 116.210938 11.925781 Z M 117.5625 10.289062 " clip-rule="nonzero"/></clipPath><clipPath id="10845bda8a"><path d="M 116 10 L 118 10 L 118 13 L 116 13 Z M 116 10 " clip-rule="nonzero"/></clipPath><clipPath id="c6e9ea52bc"><path d="M 116.96875 7.414062 L 119.773438 9.730469 L 115.144531 15.335938 L 112.339844 13.023438 Z M 116.96875 7.414062 " clip-rule="nonzero"/></clipPath><clipPath id="80724af59c"><path d="M 120 9.917969 L 117.195312 7.601562 L 112.570312 13.210938 L 115.375 15.523438 Z M 120 9.917969 " clip-rule="nonzero"/></clipPath><clipPath id="a05b31c482"><path d="M 115 11 L 118 11 L 118 15 L 115 15 Z M 115 11 " clip-rule="nonzero"/></clipPath><clipPath id="d8083bc78f"><path d="M 116.96875 7.414062 L 119.773438 9.730469 L 115.144531 15.335938 L 112.339844 13.023438 Z M 116.96875 7.414062 " clip-rule="nonzero"/></clipPath><clipPath id="d660be2cf5"><path d="M 120 9.917969 L 117.195312 7.601562 L 112.570312 13.210938 L 115.375 15.523438 Z M 120 9.917969 " clip-rule="nonzero"/></clipPath><clipPath id="05195918b7"><path d="M 116 8 L 119 8 L 119 11 L 116 11 Z M 116 8 " clip-rule="nonzero"/></clipPath><clipPath id="05b934a0db"><path d="M 116.96875 7.414062 L 119.773438 9.730469 L 115.144531 15.335938 L 112.339844 13.023438 Z M 116.96875 7.414062 " clip-rule="nonzero"/></clipPath><clipPath id="9d0e75397f"><path d="M 120 9.917969 L 117.195312 7.601562 L 112.570312 13.210938 L 115.375 15.523438 Z M 120 9.917969 " clip-rule="nonzero"/></clipPath><clipPath id="d0936ff1f3"><path d="M 133 3 L 136 3 L 136 6 L 133 6 Z M 133 3 " clip-rule="nonzero"/></clipPath><clipPath id="f0a0084a89"><path d="M 130.367188 5.9375 L 130.78125 2.757812 L 137.140625 3.585938 L 136.726562 6.765625 Z M 130.367188 5.9375 " clip-rule="nonzero"/></clipPath><clipPath id="40703af06a"><path d="M 130.367188 5.9375 L 130.78125 2.757812 L 137.140625 3.585938 L 136.726562 6.765625 Z M 130.367188 5.9375 " clip-rule="nonzero"/></clipPath><clipPath id="9c2fe2532f"><path d="M 135 4 L 137 4 L 137 7 L 135 7 Z M 135 4 " clip-rule="nonzero"/></clipPath><clipPath id="3eeacf4929"><path d="M 130.367188 5.9375 L 130.78125 2.757812 L 137.140625 3.585938 L 136.726562 6.765625 Z M 130.367188 5.9375 " clip-rule="nonzero"/></clipPath><clipPath id="b520828914"><path d="M 130.367188 5.9375 L 130.78125 2.757812 L 137.140625 3.585938 L 136.726562 6.765625 Z M 130.367188 5.9375 " clip-rule="nonzero"/></clipPath><clipPath id="a7536b0aea"><path d="M 132 2 L 135 2 L 135 5 L 132 5 Z M 132 2 " clip-rule="nonzero"/></clipPath><clipPath id="843c684236"><path d="M 130.367188 5.9375 L 130.78125 2.757812 L 137.140625 3.585938 L 136.726562 6.765625 Z M 130.367188 5.9375 " clip-rule="nonzero"/></clipPath><clipPath id="8264e9b5dd"><path d="M 130.367188 5.9375 L 130.78125 2.757812 L 137.140625 3.585938 L 136.726562 6.765625 Z M 130.367188 5.9375 " clip-rule="nonzero"/></clipPath><clipPath id="7095db803a"><path d="M 132.164062 4.707031 L 132.402344 2.875 L 134.257812 3.117188 L 134.019531 4.949219 Z M 132.164062 4.707031 " clip-rule="nonzero"/></clipPath><clipPath id="4e3a4165a8"><path d="M 132.164062 4.707031 L 132.390625 2.972656 L 134.246094 3.214844 L 134.019531 4.949219 Z M 132.164062 4.707031 " clip-rule="nonzero"/></clipPath><clipPath id="afd78ea5e5"><path d="M 132 4 L 135 4 L 135 6 L 132 6 Z M 132 4 " clip-rule="nonzero"/></clipPath><clipPath id="60505d97c5"><path d="M 130.367188 5.9375 L 130.78125 2.757812 L 137.140625 3.585938 L 136.726562 6.765625 Z M 130.367188 5.9375 " clip-rule="nonzero"/></clipPath><clipPath id="6afce7fda4"><path d="M 130.367188 5.9375 L 130.78125 2.757812 L 137.140625 3.585938 L 136.726562 6.765625 Z M 130.367188 5.9375 " clip-rule="nonzero"/></clipPath><clipPath id="aad955f8dc"><path d="M 133 5 L 136 5 L 136 7 L 133 7 Z M 133 5 " clip-rule="nonzero"/></clipPath><clipPath id="e09a723094"><path d="M 130.367188 5.9375 L 130.78125 2.757812 L 137.140625 3.585938 L 136.726562 6.765625 Z M 130.367188 5.9375 " clip-rule="nonzero"/></clipPath><clipPath id="2cd4671415"><path d="M 130.367188 5.9375 L 130.78125 2.757812 L 137.140625 3.585938 L 136.726562 6.765625 Z M 130.367188 5.9375 " clip-rule="nonzero"/></clipPath><clipPath id="9d674b0f67"><path d="M 130 3 L 134 3 L 134 5 L 130 5 Z M 130 3 " clip-rule="nonzero"/></clipPath><clipPath id="b9cc25e5b4"><path d="M 130.367188 5.9375 L 130.78125 2.757812 L 137.140625 3.585938 L 136.726562 6.765625 Z M 130.367188 5.9375 " clip-rule="nonzero"/></clipPath><clipPath id="203b824061"><path d="M 130.367188 5.9375 L 130.78125 2.757812 L 137.140625 3.585938 L 136.726562 6.765625 Z M 130.367188 5.9375 " clip-rule="nonzero"/></clipPath><clipPath id="69945bc773"><path d="M 137 7 L 139 7 L 139 10 L 137 10 Z M 137 7 " clip-rule="nonzero"/></clipPath><clipPath id="6d9344bb51"><path d="M 134.019531 8.570312 L 135.398438 5.671875 L 141.1875 8.429688 L 139.8125 11.324219 Z M 134.019531 8.570312 " clip-rule="nonzero"/></clipPath><clipPath id="8c242a9889"><path d="M 134.019531 8.570312 L 135.398438 5.671875 L 141.1875 8.429688 L 139.8125 11.324219 Z M 134.019531 8.570312 " clip-rule="nonzero"/></clipPath><clipPath id="4378d2112c"><path d="M 138 8 L 140 8 L 140 12 L 138 12 Z M 138 8 " clip-rule="nonzero"/></clipPath><clipPath id="066ee1bce8"><path d="M 134.019531 8.570312 L 135.398438 5.671875 L 141.1875 8.429688 L 139.8125 11.324219 Z M 134.019531 8.570312 " clip-rule="nonzero"/></clipPath><clipPath id="1965d847b8"><path d="M 134.019531 8.570312 L 135.398438 5.671875 L 141.1875 8.429688 L 139.8125 11.324219 Z M 134.019531 8.570312 " clip-rule="nonzero"/></clipPath><clipPath id="59267ccc10"><path d="M 136 6 L 138 6 L 138 9 L 136 9 Z M 136 6 " clip-rule="nonzero"/></clipPath><clipPath id="64fb0094cd"><path d="M 134.019531 8.570312 L 135.398438 5.671875 L 141.1875 8.429688 L 139.8125 11.324219 Z M 134.019531 8.570312 " clip-rule="nonzero"/></clipPath><clipPath id="47b59812c6"><path d="M 134.019531 8.570312 L 135.398438 5.671875 L 141.1875 8.429688 L 139.8125 11.324219 Z M 134.019531 8.570312 " clip-rule="nonzero"/></clipPath><clipPath id="f8ae25e152"><path d="M 136.109375 7.953125 L 136.902344 6.285156 L 138.59375 7.089844 L 137.800781 8.757812 Z M 136.109375 7.953125 " clip-rule="nonzero"/></clipPath><clipPath id="350ea7cd44"><path d="M 136.109375 7.953125 L 136.859375 6.375 L 138.550781 7.179688 L 137.800781 8.757812 Z M 136.109375 7.953125 " clip-rule="nonzero"/></clipPath><clipPath id="dc2f29e904"><path d="M 135 7 L 139 7 L 139 10 L 135 10 Z M 135 7 " clip-rule="nonzero"/></clipPath><clipPath id="3e684570b0"><path d="M 134.019531 8.570312 L 135.398438 5.671875 L 141.1875 8.429688 L 139.8125 11.324219 Z M 134.019531 8.570312 " clip-rule="nonzero"/></clipPath><clipPath id="913c4f56b6"><path d="M 134.019531 8.570312 L 135.398438 5.671875 L 141.1875 8.429688 L 139.8125 11.324219 Z M 134.019531 8.570312 " clip-rule="nonzero"/></clipPath><clipPath id="b88e5fccb2"><path d="M 136 9 L 140 9 L 140 11 L 136 11 Z M 136 9 " clip-rule="nonzero"/></clipPath><clipPath id="6e04fc75c3"><path d="M 134.019531 8.570312 L 135.398438 5.671875 L 141.1875 8.429688 L 139.8125 11.324219 Z M 134.019531 8.570312 " clip-rule="nonzero"/></clipPath><clipPath id="18a969b78e"><path d="M 134.019531 8.570312 L 135.398438 5.671875 L 141.1875 8.429688 L 139.8125 11.324219 Z M 134.019531 8.570312 " clip-rule="nonzero"/></clipPath><clipPath id="ea26b70189"><path d="M 134 6 L 138 6 L 138 9 L 134 9 Z M 134 6 " clip-rule="nonzero"/></clipPath><clipPath id="a3d19b4a79"><path d="M 134.019531 8.570312 L 135.398438 5.671875 L 141.1875 8.429688 L 139.8125 11.324219 Z M 134.019531 8.570312 " clip-rule="nonzero"/></clipPath><clipPath id="2c862fcc40"><path d="M 134.019531 8.570312 L 135.398438 5.671875 L 141.1875 8.429688 L 139.8125 11.324219 Z M 134.019531 8.570312 " clip-rule="nonzero"/></clipPath><clipPath id="a5acec07af"><path d="M 122 3 L 125 3 L 125 6 L 122 6 Z M 122 3 " clip-rule="nonzero"/></clipPath><clipPath id="0961ea4b57"><path d="M 127.375 2.40625 L 127.757812 5.523438 L 121.519531 6.28125 L 121.140625 3.164062 Z M 127.375 2.40625 " clip-rule="nonzero"/></clipPath><clipPath id="dc74a57b2a"><path d="M 127.789062 5.777344 L 127.40625 2.660156 L 121.171875 3.417969 L 121.550781 6.535156 Z M 127.789062 5.777344 " clip-rule="nonzero"/></clipPath><clipPath id="c9dc78827f"><path d="M 121 4 L 124 4 L 124 7 L 121 7 Z M 121 4 " clip-rule="nonzero"/></clipPath><clipPath id="b451bd09b7"><path d="M 127.375 2.40625 L 127.757812 5.523438 L 121.519531 6.28125 L 121.140625 3.164062 Z M 127.375 2.40625 " clip-rule="nonzero"/></clipPath><clipPath id="f1f1fc85d8"><path d="M 127.789062 5.777344 L 127.40625 2.660156 L 121.171875 3.417969 L 121.550781 6.535156 Z M 127.789062 5.777344 " clip-rule="nonzero"/></clipPath><clipPath id="9066316535"><path d="M 124 2 L 126 2 L 126 5 L 124 5 Z M 124 2 " clip-rule="nonzero"/></clipPath><clipPath id="ef91af46c2"><path d="M 127.375 2.40625 L 127.757812 5.523438 L 121.519531 6.28125 L 121.140625 3.164062 Z M 127.375 2.40625 " clip-rule="nonzero"/></clipPath><clipPath id="15af64f431"><path d="M 127.789062 5.777344 L 127.40625 2.660156 L 121.171875 3.417969 L 121.550781 6.535156 Z M 127.789062 5.777344 " clip-rule="nonzero"/></clipPath><clipPath id="d59f88b442"><path d="M 126.039062 4.558594 L 125.820312 2.761719 L 124 2.984375 L 124.21875 4.777344 Z M 126.039062 4.558594 " clip-rule="nonzero"/></clipPath><clipPath id="0f31f1734a"><path d="M 126.039062 4.558594 L 125.832031 2.855469 L 124.011719 3.078125 L 124.21875 4.777344 Z M 126.039062 4.558594 " clip-rule="nonzero"/></clipPath><clipPath id="e0e7349aa3"><path d="M 123 4 L 127 4 L 127 6 L 123 6 Z M 123 4 " clip-rule="nonzero"/></clipPath><clipPath id="08d99e95b3"><path d="M 127.375 2.40625 L 127.757812 5.523438 L 121.519531 6.28125 L 121.140625 3.164062 Z M 127.375 2.40625 " clip-rule="nonzero"/></clipPath><clipPath id="ad7bfeff4d"><path d="M 127.789062 5.777344 L 127.40625 2.660156 L 121.171875 3.417969 L 121.550781 6.535156 Z M 127.789062 5.777344 " clip-rule="nonzero"/></clipPath><clipPath id="69d971a7cd"><path d="M 122 5 L 125 5 L 125 7 L 122 7 Z M 122 5 " clip-rule="nonzero"/></clipPath><clipPath id="7f06bcd62b"><path d="M 127.375 2.40625 L 127.757812 5.523438 L 121.519531 6.28125 L 121.140625 3.164062 Z M 127.375 2.40625 " clip-rule="nonzero"/></clipPath><clipPath id="994037bbbe"><path d="M 127.789062 5.777344 L 127.40625 2.660156 L 121.171875 3.417969 L 121.550781 6.535156 Z M 127.789062 5.777344 " clip-rule="nonzero"/></clipPath><clipPath id="1309f47bb4"><path d="M 125 3 L 128 3 L 128 5 L 125 5 Z M 125 3 " clip-rule="nonzero"/></clipPath><clipPath id="808db30372"><path d="M 127.375 2.40625 L 127.757812 5.523438 L 121.519531 6.28125 L 121.140625 3.164062 Z M 127.375 2.40625 " clip-rule="nonzero"/></clipPath><clipPath id="25dee6cb37"><path d="M 127.789062 5.777344 L 127.40625 2.660156 L 121.171875 3.417969 L 121.550781 6.535156 Z M 127.789062 5.777344 " clip-rule="nonzero"/></clipPath><clipPath id="b6b710b4d0"><path d="M 119 7 L 121 7 L 121 10 L 119 10 Z M 119 7 " clip-rule="nonzero"/></clipPath><clipPath id="f51b701469"><path d="M 123.015625 5.257812 L 124.351562 8.101562 L 118.667969 10.773438 L 117.332031 7.933594 Z M 123.015625 5.257812 " clip-rule="nonzero"/></clipPath><clipPath id="13d759b516"><path d="M 124.460938 8.332031 L 123.125 5.492188 L 117.4375 8.164062 L 118.777344 11.007812 Z M 124.460938 8.332031 " clip-rule="nonzero"/></clipPath><clipPath id="b395cb28df"><path d="M 118 8 L 120 8 L 120 11 L 118 11 Z M 118 8 " clip-rule="nonzero"/></clipPath><clipPath id="77567d67a5"><path d="M 123.015625 5.257812 L 124.351562 8.101562 L 118.667969 10.773438 L 117.332031 7.933594 Z M 123.015625 5.257812 " clip-rule="nonzero"/></clipPath><clipPath id="21627ae408"><path d="M 124.460938 8.332031 L 123.125 5.492188 L 117.4375 8.164062 L 118.777344 11.007812 Z M 124.460938 8.332031 " clip-rule="nonzero"/></clipPath><clipPath id="61966214dc"><path d="M 120 6 L 122 6 L 122 9 L 120 9 Z M 120 6 " clip-rule="nonzero"/></clipPath><clipPath id="e6edf50afc"><path d="M 123.015625 5.257812 L 124.351562 8.101562 L 118.667969 10.773438 L 117.332031 7.933594 Z M 123.015625 5.257812 " clip-rule="nonzero"/></clipPath><clipPath id="9d77ed47aa"><path d="M 124.460938 8.332031 L 123.125 5.492188 L 117.4375 8.164062 L 118.777344 11.007812 Z M 124.460938 8.332031 " clip-rule="nonzero"/></clipPath><clipPath id="f4d326efc8"><path d="M 122.417969 7.722656 L 121.648438 6.085938 L 119.988281 6.863281 L 120.757812 8.503906 Z M 122.417969 7.722656 " clip-rule="nonzero"/></clipPath><clipPath id="6bad749769"><path d="M 122.417969 7.722656 L 121.6875 6.171875 L 120.027344 6.953125 L 120.757812 8.503906 Z M 122.417969 7.722656 " clip-rule="nonzero"/></clipPath><clipPath id="fbaad280a2"><path d="M 120 7 L 123 7 L 123 10 L 120 10 Z M 120 7 " clip-rule="nonzero"/></clipPath><clipPath id="ac2dafe9fc"><path d="M 123.015625 5.257812 L 124.351562 8.101562 L 118.667969 10.773438 L 117.332031 7.933594 Z M 123.015625 5.257812 " clip-rule="nonzero"/></clipPath><clipPath id="32a9c31a92"><path d="M 124.460938 8.332031 L 123.125 5.492188 L 117.4375 8.164062 L 118.777344 11.007812 Z M 124.460938 8.332031 " clip-rule="nonzero"/></clipPath><clipPath id="a94326ee70"><path d="M 119 8 L 122 8 L 122 11 L 119 11 Z M 119 8 " clip-rule="nonzero"/></clipPath><clipPath id="3141583dae"><path d="M 123.015625 5.257812 L 124.351562 8.101562 L 118.667969 10.773438 L 117.332031 7.933594 Z M 123.015625 5.257812 " clip-rule="nonzero"/></clipPath><clipPath id="854cfb04f0"><path d="M 124.460938 8.332031 L 123.125 5.492188 L 117.4375 8.164062 L 118.777344 11.007812 Z M 124.460938 8.332031 " clip-rule="nonzero"/></clipPath><clipPath id="550a9b09c3"><path d="M 121 6 L 124 6 L 124 8 L 121 8 Z M 121 6 " clip-rule="nonzero"/></clipPath><clipPath id="b8320e190c"><path d="M 123.015625 5.257812 L 124.351562 8.101562 L 118.667969 10.773438 L 117.332031 7.933594 Z M 123.015625 5.257812 " clip-rule="nonzero"/></clipPath><clipPath id="508ce66973"><path d="M 124.460938 8.332031 L 123.125 5.492188 L 117.4375 8.164062 L 118.777344 11.007812 Z M 124.460938 8.332031 " clip-rule="nonzero"/></clipPath><clipPath id="97e5c79c6d"><path d="M 114.554688 16.898438 L 143.242188 16.898438 L 143.242188 30.871094 L 114.554688 30.871094 Z M 114.554688 16.898438 " clip-rule="nonzero"/></clipPath><clipPath id="a2eff21fd1"><path d="M 114.683594 16.898438 L 143.371094 16.898438 L 143.371094 30.871094 L 114.683594 30.871094 Z M 114.683594 16.898438 " clip-rule="nonzero"/></clipPath></defs><g fill="#fac21a" fill-opacity="1"><g transform="translate(144.014196, 29.309929)"><g><path d="M 21.390625 -22.1875 C 21.390625 -22.769531 21.179688 -23.269531 20.765625 -23.6875 C 20.359375 -24.113281 19.875 -24.335938 19.3125 -24.359375 L 12.421875 -24.359375 L 12.421875 -2.609375 C 12.441406 -1.984375 12.675781 -1.453125 13.125 -1.015625 C 13.570312 -0.578125 14.113281 -0.359375 14.75 -0.359375 L 15.21875 -0.359375 L 15.21875 0 L 7.265625 0 L 7.265625 -0.359375 L 7.734375 -0.359375 C 8.359375 -0.359375 8.894531 -0.578125 9.34375 -1.015625 C 9.789062 -1.453125 10.03125 -1.972656 10.0625 -2.578125 L 10.0625 -24.359375 L 3.15625 -24.359375 C 2.570312 -24.335938 2.082031 -24.113281 1.6875 -23.6875 C 1.289062 -23.269531 1.09375 -22.769531 1.09375 -22.1875 L 1.09375 -21.5625 L 0.71875 -21.53125 L 0.71875 -26.109375 C 1.082031 -25.960938 1.710938 -25.816406 2.609375 -25.671875 C 3.503906 -25.523438 4.328125 -25.453125 5.078125 -25.453125 L 17.359375 -25.453125 C 18.546875 -25.453125 19.53125 -25.539062 20.3125 -25.71875 C 21.101562 -25.90625 21.582031 -26.035156 21.75 -26.109375 L 21.75 -21.53125 L 21.390625 -21.5625 Z M 21.390625 -22.1875 "/></g></g></g><g fill="#fac21a" fill-opacity="1"><g transform="translate(166.445234, 29.309929)"><g><path d="M 5.328125 -22.265625 C 7.921875 -24.703125 11.28125 -25.921875 15.40625 -25.921875 C 19.539062 -25.921875 22.898438 -24.703125 25.484375 -22.265625 C 28.078125 -19.835938 29.375 -16.648438 29.375 -12.703125 C 29.375 -8.765625 28.078125 -5.578125 25.484375 -3.140625 C 22.898438 -0.703125 19.539062 0.515625 15.40625 0.515625 C 11.28125 0.515625 7.921875 -0.703125 5.328125 -3.140625 C 2.742188 -5.578125 1.453125 -8.765625 1.453125 -12.703125 C 1.453125 -16.648438 2.742188 -19.835938 5.328125 -22.265625 Z M 7.3125 -3.921875 C 9.363281 -1.691406 12.054688 -0.578125 15.390625 -0.578125 C 18.734375 -0.578125 21.425781 -1.691406 23.46875 -3.921875 C 25.519531 -6.148438 26.546875 -9.078125 26.546875 -12.703125 C 26.546875 -16.335938 25.519531 -19.269531 23.46875 -21.5 C 21.425781 -23.726562 18.734375 -24.84375 15.390625 -24.84375 C 12.054688 -24.84375 9.363281 -23.726562 7.3125 -21.5 C 5.269531 -19.269531 4.25 -16.335938 4.25 -12.703125 C 4.25 -9.078125 5.269531 -6.148438 7.3125 -3.921875 Z M 7.3125 -3.921875 "/></g></g></g><g fill="#fac21a" fill-opacity="1"><g transform="translate(27.555181, 29.964965)"><g><path d="M 9.765625 -0.375 L 10.25 -0.375 L 10.25 0 L 2.203125 0 L 2.203125 -0.375 L 2.6875 -0.375 C 3.320312 -0.375 3.863281 -0.597656 4.3125 -1.046875 C 4.769531 -1.492188 5.007812 -2.039062 5.03125 -2.6875 L 5.03125 -23.0625 C 5.007812 -23.707031 4.769531 -24.25 4.3125 -24.6875 C 3.863281 -25.125 3.320312 -25.34375 2.6875 -25.34375 L 2.203125 -25.34375 L 2.203125 -25.71875 L 10.25 -25.71875 L 10.25 -25.34375 L 9.765625 -25.34375 C 9.128906 -25.34375 8.582031 -25.125 8.125 -24.6875 C 7.675781 -24.25 7.441406 -23.707031 7.421875 -23.0625 L 7.421875 -2.6875 C 7.421875 -2.039062 7.648438 -1.492188 8.109375 -1.046875 C 8.578125 -0.597656 9.128906 -0.375 9.765625 -0.375 Z M 35.234375 5.515625 L 35.234375 5.875 C 34.296875 6.09375 33.363281 6.203125 32.4375 6.203125 C 28.414062 6.203125 24.519531 4.195312 20.75 0.1875 L 8.59375 -12.78125 L 17.265625 -23.65625 C 17.460938 -23.90625 17.5625 -24.125 17.5625 -24.3125 C 17.5625 -24.507812 17.523438 -24.679688 17.453125 -24.828125 C 17.253906 -25.203125 16.898438 -25.390625 16.390625 -25.390625 L 16.015625 -25.390625 L 16.015625 -25.71875 L 23.765625 -25.71875 L 23.765625 -25.390625 L 23.625 -25.390625 C 22.007812 -25.390625 20.6875 -24.8125 19.65625 -23.65625 L 11.09375 -13.78125 L 23.578125 -0.4375 C 25.203125 1.300781 27.019531 2.726562 29.03125 3.84375 C 31.050781 4.957031 33.117188 5.515625 35.234375 5.515625 Z M 35.234375 5.515625 "/></g></g></g><g fill="#fac21a" fill-opacity="1"><g transform="translate(52.124028, 29.964965)"><g><path d="M 5.390625 -22.53125 C 8.015625 -25 11.414062 -26.234375 15.59375 -26.234375 C 19.769531 -26.234375 23.164062 -25 25.78125 -22.53125 C 28.40625 -20.070312 29.71875 -16.847656 29.71875 -12.859375 C 29.71875 -8.867188 28.40625 -5.640625 25.78125 -3.171875 C 23.164062 -0.710938 19.769531 0.515625 15.59375 0.515625 C 11.414062 0.515625 8.015625 -0.710938 5.390625 -3.171875 C 2.773438 -5.640625 1.46875 -8.867188 1.46875 -12.859375 C 1.46875 -16.847656 2.773438 -20.070312 5.390625 -22.53125 Z M 7.390625 -3.96875 C 9.460938 -1.71875 12.1875 -0.59375 15.5625 -0.59375 C 18.945312 -0.59375 21.675781 -1.71875 23.75 -3.96875 C 25.820312 -6.21875 26.859375 -9.175781 26.859375 -12.84375 C 26.859375 -16.519531 25.820312 -19.484375 23.75 -21.734375 C 21.675781 -23.992188 18.945312 -25.125 15.5625 -25.125 C 12.1875 -25.125 9.460938 -23.992188 7.390625 -21.734375 C 5.328125 -19.484375 4.296875 -16.519531 4.296875 -12.84375 C 4.296875 -9.175781 5.328125 -6.21875 7.390625 -3.96875 Z M 7.390625 -3.96875 "/></g></g></g><g fill="#fac21a" fill-opacity="1"><g transform="translate(83.266613, 29.964965)"><g><path d="M 28.578125 -25.34375 C 27.960938 -25.34375 27.4375 -25.128906 27 -24.703125 C 26.5625 -24.273438 26.328125 -23.753906 26.296875 -23.140625 L 26.296875 -4.1875 C 26.296875 -2.769531 26.382812 -1.421875 26.5625 -0.140625 L 26.625 0.515625 L 26.296875 0.515625 L 6.28125 -20.859375 L 6.28125 -2.578125 C 6.28125 -1.960938 6.5 -1.441406 6.9375 -1.015625 C 7.382812 -0.585938 7.910156 -0.375 8.515625 -0.375 L 9.21875 -0.375 L 9.21875 0 L 1.65625 0 L 1.65625 -0.375 L 2.34375 -0.375 C 2.957031 -0.375 3.484375 -0.585938 3.921875 -1.015625 C 4.367188 -1.441406 4.59375 -1.972656 4.59375 -2.609375 L 4.59375 -21.671875 C 4.59375 -23.160156 4.503906 -24.492188 4.328125 -25.671875 L 4.265625 -26.265625 L 4.625 -26.265625 L 24.65625 -4.890625 L 24.65625 -23.109375 C 24.625 -23.742188 24.390625 -24.273438 23.953125 -24.703125 C 23.515625 -25.128906 22.988281 -25.34375 22.375 -25.34375 L 21.671875 -25.34375 L 21.671875 -25.71875 L 29.234375 -25.71875 L 29.234375 -25.34375 Z M 28.578125 -25.34375 "/></g></g></g><g clip-path="url(#c567c6a958)"><g clip-path="url(#e0d3960bbf)"><g clip-path="url(#e0eeee74e5)"><path fill="#fac21a" d="M 140.40625 5.039062 C 140.496094 6.460938 140.308594 6.777344 141.164062 7.730469 C 141.199219 6.78125 141.410156 6.152344 140.40625 5.039062 " fill-opacity="1" fill-rule="nonzero"/></g></g></g><g clip-path="url(#1b1b452fee)"><g clip-path="url(#892d86a508)"><g clip-path="url(#487b64b50e)"><path fill="#fac21a" d="M 141.382812 6.5625 C 141.472656 7.988281 141.28125 8.304688 142.136719 9.257812 C 142.171875 8.304688 142.382812 7.675781 141.382812 6.5625 " fill-opacity="1" fill-rule="nonzero"/></g></g></g><g clip-path="url(#fc1c722c8a)"><g clip-path="url(#fe80e97665)"><g clip-path="url(#fa060b6665)"><g clip-path="url(#bf68c340c0)"><g clip-path="url(#850a3598f1)"><path fill="#fac21a" d="M 139.429688 3.511719 C 139.523438 4.9375 139.332031 5.253906 140.1875 6.203125 C 140.222656 5.253906 140.433594 4.625 139.429688 3.511719 " fill-opacity="1" fill-rule="nonzero"/></g></g></g></g></g><g clip-path="url(#f05660083b)"><g clip-path="url(#55fa011cd1)"><g clip-path="url(#b38d395fee)"><path fill="#fac21a" d="M 138.21875 5.105469 C 139.527344 5.867188 139.921875 5.867188 140.414062 7.015625 C 139.492188 6.585938 138.792969 6.453125 138.21875 5.105469 " fill-opacity="1" fill-rule="nonzero"/></g></g></g><g clip-path="url(#16bfc18325)"><g clip-path="url(#c9ae586917)"><g clip-path="url(#f6112caa0d)"><path fill="#fac21a" d="M 139.199219 6.628906 C 140.507812 7.390625 140.902344 7.386719 141.394531 8.539062 C 140.472656 8.109375 139.773438 7.976562 139.199219 6.628906 " fill-opacity="1" fill-rule="nonzero"/></g></g></g><g clip-path="url(#4bf1aa1820)"><g clip-path="url(#9bb7182b76)"><g clip-path="url(#cf465bb2b5)"><path fill="#fac21a" d="M 137.238281 3.585938 C 138.546875 4.34375 138.941406 4.34375 139.433594 5.492188 C 138.511719 5.0625 137.8125 4.929688 137.238281 3.585938 " fill-opacity="1" fill-rule="nonzero"/></g></g></g><g clip-path="url(#3b8d541d0e)"><g clip-path="url(#2479a1a7e9)"><g clip-path="url(#bd07adfd34)"><path fill="#fac21a" d="M 142.894531 10.847656 C 142.539062 12.230469 142.261719 12.472656 142.78125 13.644531 C 143.109375 12.75 143.503906 12.21875 142.894531 10.847656 " fill-opacity="1" fill-rule="nonzero"/></g></g></g><g clip-path="url(#72ff8705b8)"><g clip-path="url(#cf3188db3d)"><g clip-path="url(#afb3fbf5fa)"><path fill="#fac21a" d="M 143.347656 12.601562 C 142.996094 13.984375 142.714844 14.226562 143.234375 15.394531 C 143.5625 14.503906 143.957031 13.96875 143.347656 12.601562 " fill-opacity="1" fill-rule="nonzero"/></g></g></g><g clip-path="url(#6bc0cdee0f)"><g clip-path="url(#a069ffe72b)"><g clip-path="url(#a5325cceb4)"><g clip-path="url(#52ffe5cdb5)"><g clip-path="url(#e2631e8048)"><path fill="#fac21a" d="M 142.441406 9.09375 C 142.085938 10.476562 141.808594 10.71875 142.324219 11.890625 C 142.652344 11 143.046875 10.464844 142.441406 9.09375 " fill-opacity="1" fill-rule="nonzero"/></g></g></g></g></g><g clip-path="url(#9eaf87954d)"><g clip-path="url(#302425923f)"><g clip-path="url(#31ad3263fb)"><path fill="#fac21a" d="M 140.792969 10.234375 C 141.800781 11.363281 142.175781 11.484375 142.289062 12.730469 C 141.546875 12.039062 140.921875 11.695312 140.792969 10.234375 " fill-opacity="1" fill-rule="nonzero"/></g></g></g><g clip-path="url(#11d23cdcd8)"><g clip-path="url(#a1241288ae)"><g clip-path="url(#210bae1c5f)"><path fill="#fac21a" d="M 141.253906 11.988281 C 142.261719 13.117188 142.636719 13.238281 142.75 14.484375 C 142.007812 13.789062 141.382812 13.445312 141.253906 11.988281 " fill-opacity="1" fill-rule="nonzero"/></g></g></g><g clip-path="url(#1875295f55)"><g clip-path="url(#13e565bc6e)"><g clip-path="url(#53260ad4a5)"><path fill="#fac21a" d="M 140.332031 8.484375 C 141.339844 9.613281 141.714844 9.734375 141.828125 10.980469 C 141.085938 10.289062 140.460938 9.945312 140.332031 8.484375 " fill-opacity="1" fill-rule="nonzero"/></g></g></g><g clip-path="url(#82aae47f99)"><path fill="#fac21a" d="M 114.558594 16.894531 L 115.148438 16.894531 C 115.148438 24.285156 121.316406 30.296875 128.898438 30.296875 C 136.480469 30.296875 142.648438 24.285156 142.648438 16.894531 L 143.238281 16.894531 C 143.238281 24.601562 136.804688 30.871094 128.898438 30.871094 C 120.992188 30.871094 114.558594 24.601562 114.558594 16.894531 Z M 114.558594 16.894531 " fill-opacity="1" fill-rule="nonzero"/></g><g clip-path="url(#bf37a9f80e)"><g clip-path="url(#05a979ffb7)"><g clip-path="url(#ffcde43322)"><path fill="#fac21a" d="M 117.726562 5.070312 C 117.648438 6.503906 117.84375 6.820312 116.992188 7.785156 C 116.945312 6.832031 116.730469 6.199219 117.726562 5.070312 " fill-opacity="1" fill-rule="nonzero"/></g></g></g><g clip-path="url(#3e362bd138)"><g clip-path="url(#92b3395960)"><g clip-path="url(#966585cd98)"><path fill="#fac21a" d="M 116.761719 6.613281 C 116.683594 8.042969 116.875 8.359375 116.027344 9.324219 C 115.980469 8.371094 115.765625 7.742188 116.761719 6.613281 " fill-opacity="1" fill-rule="nonzero"/></g></g></g><g clip-path="url(#454f98ea27)"><g clip-path="url(#82463db1c0)"><g clip-path="url(#23d4a7ae6f)"><g clip-path="url(#5a7d1de493)"><g clip-path="url(#60898e53a8)"><path fill="#fac21a" d="M 118.691406 3.53125 C 118.613281 4.960938 118.808594 5.277344 117.957031 6.242188 C 117.914062 5.289062 117.695312 4.660156 118.691406 3.53125 " fill-opacity="1" fill-rule="nonzero"/></g></g></g></g></g><g clip-path="url(#688485c218)"><g clip-path="url(#a57fad4b7c)"><g clip-path="url(#1021e477f7)"><path fill="#fac21a" d="M 119.925781 5.121094 C 118.617188 5.898438 118.222656 5.898438 117.738281 7.058594 C 118.65625 6.621094 119.359375 6.480469 119.925781 5.121094 " fill-opacity="1" fill-rule="nonzero"/></g></g></g><g clip-path="url(#486eab22a0)"><g clip-path="url(#fd4596a468)"><g clip-path="url(#ec24e1f44a)"><path fill="#fac21a" d="M 118.957031 6.660156 C 117.644531 7.433594 117.25 7.4375 116.765625 8.597656 C 117.6875 8.160156 118.386719 8.019531 118.957031 6.660156 " fill-opacity="1" fill-rule="nonzero"/></g></g></g><g clip-path="url(#b0d67a7a9a)"><g clip-path="url(#c96838be08)"><g clip-path="url(#a5215f2c37)"><path fill="#fac21a" d="M 120.898438 3.582031 C 119.589844 4.359375 119.195312 4.363281 118.707031 5.519531 C 119.628906 5.082031 120.332031 4.941406 120.898438 3.582031 " fill-opacity="1" fill-rule="nonzero"/></g></g></g><g clip-path="url(#e930362f98)"><g clip-path="url(#d7fce5bf29)"><g clip-path="url(#a757b26073)"><path fill="#fac21a" d="M 115.570312 10.824219 C 115.941406 12.207031 116.226562 12.449219 115.71875 13.628906 C 115.378906 12.738281 114.976562 12.207031 115.570312 10.824219 " fill-opacity="1" fill-rule="nonzero"/></g></g></g><g clip-path="url(#5ef4403d2b)"><g clip-path="url(#1067bdb6a0)"><g clip-path="url(#f09e9de7ab)"><path fill="#fac21a" d="M 115.136719 12.589844 C 115.507812 13.972656 115.792969 14.214844 115.285156 15.398438 C 114.945312 14.503906 114.542969 13.972656 115.136719 12.589844 " fill-opacity="1" fill-rule="nonzero"/></g></g></g><g clip-path="url(#4dc00e61d2)"><g clip-path="url(#9af8060de6)"><g clip-path="url(#be03139e3e)"><g clip-path="url(#c25fd695aa)"><g clip-path="url(#0ea0dc001f)"><path fill="#fac21a" d="M 116.003906 9.058594 C 116.378906 10.441406 116.660156 10.679688 116.15625 11.863281 C 115.8125 10.972656 115.410156 10.441406 116.003906 9.058594 " fill-opacity="1" fill-rule="nonzero"/></g></g></g></g></g><g clip-path="url(#10845bda8a)"><g clip-path="url(#c6e9ea52bc)"><g clip-path="url(#80724af59c)"><path fill="#fac21a" d="M 117.675781 10.183594 C 116.671875 11.328125 116.300781 11.457031 116.203125 12.707031 C 116.9375 12.003906 117.5625 11.648438 117.675781 10.183594 " fill-opacity="1" fill-rule="nonzero"/></g></g></g><g clip-path="url(#a05b31c482)"><g clip-path="url(#d8083bc78f)"><g clip-path="url(#d660be2cf5)"><path fill="#fac21a" d="M 117.234375 11.949219 C 116.230469 13.09375 115.859375 13.222656 115.757812 14.472656 C 116.496094 13.769531 117.121094 13.414062 117.234375 11.949219 " fill-opacity="1" fill-rule="nonzero"/></g></g></g><g clip-path="url(#05195918b7)"><g clip-path="url(#05b934a0db)"><g clip-path="url(#9d0e75397f)"><path fill="#fac21a" d="M 118.117188 8.417969 C 117.117188 9.5625 116.742188 9.691406 116.640625 10.945312 C 117.378906 10.238281 118.003906 9.886719 118.117188 8.417969 " fill-opacity="1" fill-rule="nonzero"/></g></g></g><g clip-path="url(#d0936ff1f3)"><g clip-path="url(#f0a0084a89)"><g clip-path="url(#40703af06a)"><path fill="#fac21a" d="M 133.769531 3.855469 C 134.363281 4.972656 134.324219 5.296875 135.363281 5.753906 C 135.046875 4.972656 134.984375 4.390625 133.769531 3.855469 " fill-opacity="1" fill-rule="nonzero"/></g></g></g><g clip-path="url(#9c2fe2532f)"><g clip-path="url(#3eeacf4929)"><g clip-path="url(#b520828914)"><path fill="#fac21a" d="M 135.113281 4.730469 C 135.707031 5.847656 135.667969 6.171875 136.707031 6.628906 C 136.390625 5.851562 136.332031 5.265625 135.113281 4.730469 " fill-opacity="1" fill-rule="nonzero"/></g></g></g><g clip-path="url(#a7536b0aea)"><g clip-path="url(#843c684236)"><g clip-path="url(#8264e9b5dd)"><g clip-path="url(#7095db803a)"><g clip-path="url(#4e3a4165a8)"><path fill="#fac21a" d="M 132.425781 2.976562 C 133.019531 4.09375 132.980469 4.421875 134.019531 4.878906 C 133.703125 4.097656 133.640625 3.511719 132.425781 2.976562 " fill-opacity="1" fill-rule="nonzero"/></g></g></g></g></g><g clip-path="url(#afd78ea5e5)"><g clip-path="url(#60505d97c5)"><g clip-path="url(#6afce7fda4)"><path fill="#fac21a" d="M 132.027344 4.710938 C 133.363281 4.84375 133.679688 4.703125 134.5 5.449219 C 133.597656 5.441406 132.984375 5.585938 132.027344 4.710938 " fill-opacity="1" fill-rule="nonzero"/></g></g></g><g clip-path="url(#aad955f8dc)"><g clip-path="url(#e09a723094)"><g clip-path="url(#2cd4671415)"><path fill="#fac21a" d="M 133.375 5.582031 C 134.710938 5.71875 135.027344 5.574219 135.847656 6.320312 C 134.945312 6.3125 134.332031 6.457031 133.375 5.582031 " fill-opacity="1" fill-rule="nonzero"/></g></g></g><g clip-path="url(#9d674b0f67)"><g clip-path="url(#b9cc25e5b4)"><g clip-path="url(#203b824061)"><path fill="#fac21a" d="M 130.679688 3.839844 C 132.015625 3.972656 132.332031 3.832031 133.152344 4.578125 C 132.25 4.566406 131.636719 4.714844 130.679688 3.839844 " fill-opacity="1" fill-rule="nonzero"/></g></g></g><g clip-path="url(#69945bc773)"><g clip-path="url(#6d9344bb51)"><g clip-path="url(#8c242a9889)"><path fill="#fac21a" d="M 137.898438 7.640625 C 138.117188 8.886719 137.980469 9.183594 138.828125 9.941406 C 138.765625 9.097656 138.890625 8.523438 137.898438 7.640625 " fill-opacity="1" fill-rule="nonzero"/></g></g></g><g clip-path="url(#4378d2112c)"><g clip-path="url(#066ee1bce8)"><g clip-path="url(#1965d847b8)"><path fill="#fac21a" d="M 138.90625 8.890625 C 139.125 10.136719 138.988281 10.433594 139.832031 11.1875 C 139.773438 10.347656 139.898438 9.773438 138.90625 8.890625 " fill-opacity="1" fill-rule="nonzero"/></g></g></g><g clip-path="url(#59267ccc10)"><g clip-path="url(#64fb0094cd)"><g clip-path="url(#47b59812c6)"><g clip-path="url(#f8ae25e152)"><g clip-path="url(#350ea7cd44)"><path fill="#fac21a" d="M 136.894531 6.390625 C 137.113281 7.636719 136.972656 7.933594 137.820312 8.691406 C 137.761719 7.851562 137.882812 7.273438 136.894531 6.390625 " fill-opacity="1" fill-rule="nonzero"/></g></g></g></g></g><g clip-path="url(#dc2f29e904)"><g clip-path="url(#3e684570b0)"><g clip-path="url(#913c4f56b6)"><path fill="#fac21a" d="M 135.976562 7.914062 C 137.207031 8.457031 137.550781 8.417969 138.097656 9.382812 C 137.246094 9.09375 136.617188 9.042969 135.976562 7.914062 " fill-opacity="1" fill-rule="nonzero"/></g></g></g><g clip-path="url(#b88e5fccb2)"><g clip-path="url(#6e04fc75c3)"><g clip-path="url(#18a969b78e)"><path fill="#fac21a" d="M 136.988281 9.160156 C 138.21875 9.703125 138.5625 9.664062 139.109375 10.628906 C 138.257812 10.339844 137.628906 10.289062 136.988281 9.160156 " fill-opacity="1" fill-rule="nonzero"/></g></g></g><g clip-path="url(#ea26b70189)"><g clip-path="url(#a3d19b4a79)"><g clip-path="url(#2c862fcc40)"><path fill="#fac21a" d="M 134.964844 6.667969 C 136.195312 7.210938 136.539062 7.171875 137.085938 8.136719 C 136.234375 7.847656 135.605469 7.796875 134.964844 6.667969 " fill-opacity="1" fill-rule="nonzero"/></g></g></g><g clip-path="url(#a5acec07af)"><g clip-path="url(#0961ea4b57)"><g clip-path="url(#dc74a57b2a)"><path fill="#fac21a" d="M 124.472656 3.707031 C 123.882812 4.796875 123.917969 5.117188 122.898438 5.554688 C 123.214844 4.792969 123.277344 4.222656 124.472656 3.707031 " fill-opacity="1" fill-rule="nonzero"/></g></g></g><g clip-path="url(#c9dc78827f)"><g clip-path="url(#b451bd09b7)"><g clip-path="url(#f1f1fc85d8)"><path fill="#fac21a" d="M 123.148438 4.554688 C 122.558594 5.644531 122.59375 5.964844 121.574219 6.402344 C 121.890625 5.640625 121.953125 5.070312 123.148438 4.554688 " fill-opacity="1" fill-rule="nonzero"/></g></g></g><g clip-path="url(#9066316535)"><g clip-path="url(#ef91af46c2)"><g clip-path="url(#15af64f431)"><g clip-path="url(#d59f88b442)"><g clip-path="url(#0f31f1734a)"><path fill="#fac21a" d="M 125.796875 2.859375 C 125.207031 3.949219 125.242188 4.269531 124.21875 4.707031 C 124.539062 3.945312 124.601562 3.375 125.796875 2.859375 " fill-opacity="1" fill-rule="nonzero"/></g></g></g></g></g><g clip-path="url(#e0e7349aa3)"><g clip-path="url(#08d99e95b3)"><g clip-path="url(#ad7bfeff4d)"><path fill="#fac21a" d="M 126.171875 4.558594 C 124.863281 4.683594 124.554688 4.539062 123.746094 5.265625 C 124.628906 5.261719 125.226562 5.410156 126.171875 4.558594 " fill-opacity="1" fill-rule="nonzero"/></g></g></g><g clip-path="url(#69d971a7cd)"><g clip-path="url(#7f06bcd62b)"><g clip-path="url(#994037bbbe)"><path fill="#fac21a" d="M 124.84375 5.402344 C 123.535156 5.523438 123.226562 5.382812 122.417969 6.109375 C 123.300781 6.105469 123.902344 6.253906 124.84375 5.402344 " fill-opacity="1" fill-rule="nonzero"/></g></g></g><g clip-path="url(#1309f47bb4)"><g clip-path="url(#808db30372)"><g clip-path="url(#25dee6cb37)"><path fill="#fac21a" d="M 127.5 3.714844 C 126.191406 3.839844 125.878906 3.695312 125.074219 4.421875 C 125.953125 4.417969 126.554688 4.566406 127.5 3.714844 " fill-opacity="1" fill-rule="nonzero"/></g></g></g><g clip-path="url(#b6b710b4d0)"><g clip-path="url(#f51b701469)"><g clip-path="url(#13d759b516)"><path fill="#fac21a" d="M 120.664062 7.40625 C 120.445312 8.625 120.578125 8.917969 119.746094 9.652344 C 119.808594 8.832031 119.691406 8.269531 120.664062 7.40625 " fill-opacity="1" fill-rule="nonzero"/></g></g></g><g clip-path="url(#b395cb28df)"><g clip-path="url(#77567d67a5)"><g clip-path="url(#21627ae408)"><path fill="#fac21a" d="M 119.671875 8.625 C 119.453125 9.84375 119.585938 10.136719 118.753906 10.875 C 118.816406 10.050781 118.699219 9.488281 119.671875 8.625 " fill-opacity="1" fill-rule="nonzero"/></g></g></g><g clip-path="url(#61966214dc)"><g clip-path="url(#e6edf50afc)"><g clip-path="url(#9d77ed47aa)"><g clip-path="url(#f4d326efc8)"><g clip-path="url(#6bad749769)"><path fill="#fac21a" d="M 121.65625 6.1875 C 121.4375 7.40625 121.570312 7.699219 120.738281 8.433594 C 120.800781 7.613281 120.683594 7.046875 121.65625 6.1875 " fill-opacity="1" fill-rule="nonzero"/></g></g></g></g></g><g clip-path="url(#fbaad280a2)"><g clip-path="url(#ac2dafe9fc)"><g clip-path="url(#32a9c31a92)"><path fill="#fac21a" d="M 122.546875 7.683594 C 121.339844 8.207031 121 8.167969 120.460938 9.113281 C 121.296875 8.832031 121.914062 8.785156 122.546875 7.683594 " fill-opacity="1" fill-rule="nonzero"/></g></g></g><g clip-path="url(#a94326ee70)"><g clip-path="url(#3141583dae)"><g clip-path="url(#854cfb04f0)"><path fill="#fac21a" d="M 121.550781 8.898438 C 120.34375 9.425781 120.003906 9.386719 119.464844 10.328125 C 120.300781 10.046875 120.917969 10.003906 121.550781 8.898438 " fill-opacity="1" fill-rule="nonzero"/></g></g></g><g clip-path="url(#550a9b09c3)"><g clip-path="url(#b8320e190c)"><g clip-path="url(#508ce66973)"><path fill="#fac21a" d="M 123.542969 6.464844 C 122.335938 6.992188 121.996094 6.953125 121.457031 7.894531 C 122.292969 7.617188 122.910156 7.570312 123.542969 6.464844 " fill-opacity="1" fill-rule="nonzero"/></g></g></g><g clip-path="url(#97e5c79c6d)"><path fill="#fac21a" d="M 114.558594 16.894531 L 115.148438 16.894531 C 115.148438 24.285156 121.316406 30.296875 128.898438 30.296875 C 136.480469 30.296875 142.648438 24.285156 142.648438 16.894531 L 143.238281 16.894531 C 143.238281 24.601562 136.804688 30.871094 128.898438 30.871094 C 120.992188 30.871094 114.558594 24.601562 114.558594 16.894531 Z M 114.558594 16.894531 " fill-opacity="1" fill-rule="nonzero"/></g><g clip-path="url(#a2eff21fd1)"><path fill="#fac21a" d="M 114.691406 16.894531 L 115.28125 16.894531 C 115.28125 24.285156 121.449219 30.296875 129.03125 30.296875 C 136.609375 30.296875 142.78125 24.285156 142.78125 16.894531 L 143.367188 16.894531 C 143.367188 24.601562 136.9375 30.871094 129.03125 30.871094 C 121.121094 30.871094 114.691406 24.601562 114.691406 16.894531 Z M 114.691406 16.894531 " fill-opacity="1" fill-rule="nonzero"/></g></svg>